# xmcd
#
# Track frame offsets: 
#        150
#        13892
#        15445
#        27106
#        37348
#        65815
#        88519
#        114202
#        133588
#        137161
#        169906
#        185869
#        190075
#        203473
#        226459
#        231604
#        233110
#        244186
#        247363
#        269521
#        273094
#
# Disc length: 3834 seconds
#
# Revision: 2
# Processed by: cddbd v1.5.2PL0 Copyright (c) Steve Scherf et al.
# Submitted via: ExactAudioCopyFreeDBPlugin 1.0
#
DISCID=350ef815
DTITLE=Georg Friedrich Händel - Duetti Amorosi (Nuria Rial, Lawrence Z
DTITLE=azzo, Laurence Cummings, Kammerorchester Basel)
DYEAR=2008
DGENRE=Classical
TTITLE0=Poro - Duetto: Caro amico amplesso!
TTITLE1=Serse - Recitativo: Romilda infida
TTITLE2=Serse - Duetto: Troppo oltraggi la mia fede
TTITLE3=Admento - Recitativo: Quivi tra questi solitari orrori
TTITLE4=Admento - Aria: Ah, si, morro
TTITLE5=Admento - Duetto: Alma mia, dolce ristoro
TTITLE6=Muzio Scevola - Duetto: Ma come amar?
TTITLE7=Rodelinda - Aria: Ritorna, o caro e dolce mio tesoro
TTITLE8=Rodelinda - Recitativo: Non ti basto
TTITLE9=Rodelinda - Duetto: Io t'abbraccio
TTITLE10=Arminio - Ouverture
TTITLE11=Arminio - Recitativo: Fuggi, mio bene
TTITLE12=Arminio - Duetto: Il fuggir, cara mia vita
TTITLE13=Arminio - Duetto: Ritorna nel core vezzosa
TTITLE14=Arminio - Menuetto
TTITLE15=Teseo - Recitativo: Parte Agilea, per venerar la Dea
TTITLE16=Teseo - Aria: Ti credo, si, ben' mio
TTITLE17=Teseo - Recitativo: Commanda dunque o bella
TTITLE18=Teseo - Aria: Ah! Cruda gelosia!
TTITLE19=Teseo - Recitativo: Dunque all'affetto mio
TTITLE20=Teseo - Duetto: Addio! Mio caro bene
EXTD=
EXTT0=
EXTT1=
EXTT2=
EXTT3=
EXTT4=
EXTT5=
EXTT6=
EXTT7=
EXTT8=
EXTT9=
EXTT10=
EXTT11=
EXTT12=
EXTT13=
EXTT14=
EXTT15=
EXTT16=
EXTT17=
EXTT18=
EXTT19=
EXTT20=
PLAYORDER=
